<svg width="464" height="176" viewBox="0 0 464 176" fill="none" xmlns="http://www.w3.org/2000/svg">
<rect opacity="0.100655" width="464" height="168" rx="24" fill="#3F8CFF"/>
<mask id="mask0_0_2832" style="mask-type:luminance" maskUnits="userSpaceOnUse" x="0" y="0" width="464" height="168">
<rect width="464" height="168" rx="24" fill="white"/>
</mask>
<g mask="url(#mask0_0_2832)">
<path fill-rule="evenodd" clip-rule="evenodd" d="M407.346 153.505C409.506 153.073 415.333 148.527 420.082 135.972C422.794 128.799 430.442 91.8138 420.082 89.2169C409.721 86.6184 411.664 105.234 411.664 122.334C411.664 132.76 407.346 153.505 407.346 153.505Z" fill="#BFD9FF"/>
<path fill-rule="evenodd" clip-rule="evenodd" d="M402.598 155.237C408.047 154.872 406.915 99.6063 407.346 86.6184C407.779 73.6305 410.369 25.144 403.03 17.3516C395.691 9.55916 388.137 16.4864 387.489 26.5511C387.181 31.3228 388.784 66.0551 389.647 76.012C390.511 85.9688 391.59 108.481 392.453 122.768C393.317 137.054 396.122 155.67 402.598 155.237Z" fill="#BFD9FF"/>
<path fill-rule="evenodd" clip-rule="evenodd" d="M392.453 155.885C392.453 155.885 380.357 131.955 377.344 113.459C371.948 80.3403 370.869 48.0883 378.208 48.5209C385.546 48.955 386.077 81.4269 386.41 95.2771C387.272 131.21 395.691 153.72 395.691 153.72L392.453 155.885Z" fill="#BFD9FF"/>
<path fill-rule="evenodd" clip-rule="evenodd" d="M393.468 154.905L394.028 154.702C393.986 154.583 389.724 142.721 386.906 134.789C381.375 119.213 380.456 98.5016 380.449 98.2949L379.852 98.32C379.861 98.5282 380.783 119.326 386.345 134.989C389.163 142.924 393.425 154.786 393.468 154.905Z" fill="#1B54AA"/>
<path fill-rule="evenodd" clip-rule="evenodd" d="M400.789 151.557H401.385C401.385 144.166 400.101 122.535 400.09 122.316L399.495 122.353C399.507 122.57 400.789 144.183 400.789 151.557Z" fill="#1B54AA"/>
<path fill-rule="evenodd" clip-rule="evenodd" d="M409.456 153.294C409.502 153.183 414.027 142.12 416.593 132.15C419.165 122.154 418.551 112.668 418.544 112.573L417.949 112.615C417.956 112.708 418.563 122.102 416.016 132C413.46 141.93 408.951 152.956 408.907 153.066L409.456 153.294Z" fill="#1B54AA"/>
<path fill-rule="evenodd" clip-rule="evenodd" d="M397.849 122.769C397.849 123.665 398.575 124.391 399.468 124.391C400.362 124.391 401.088 123.665 401.088 122.769C401.088 121.871 400.362 121.145 399.468 121.145C398.575 121.145 397.849 121.871 397.849 122.769Z" fill="#FFFFFE"/>
<path fill-rule="evenodd" clip-rule="evenodd" d="M416.629 112.81C416.629 113.708 417.353 114.434 418.247 114.434C419.142 114.434 419.866 113.708 419.866 112.81C419.866 111.914 419.142 111.188 418.247 111.188C417.353 111.188 416.629 111.914 416.629 112.81Z" fill="#FFFFFE"/>
<path fill-rule="evenodd" clip-rule="evenodd" d="M378.532 98.3071C378.532 99.2048 379.256 99.9312 380.15 99.9312C381.043 99.9312 381.769 99.2048 381.769 98.3071C381.769 97.411 381.043 96.6846 380.15 96.6846C379.256 96.6846 378.532 97.411 378.532 98.3071Z" fill="#FFFFFE"/>
<mask id="mask1_0_2832" style="mask-type:luminance" maskUnits="userSpaceOnUse" x="389" y="148" width="26" height="33">
<path fill-rule="evenodd" clip-rule="evenodd" d="M414.036 148.526H389.002L393.365 180.713H409.674L414.036 148.526Z" fill="white"/>
</mask>
<g mask="url(#mask1_0_2832)">
<path fill-rule="evenodd" clip-rule="evenodd" d="M389.002 153.83H414.036V151.231H389.002V153.83Z" fill="#FADFDC"/>
</g>
<path fill-rule="evenodd" clip-rule="evenodd" d="M415 148H389L393.531 181H410.469L415 148Z" fill="#3F8CFF"/>
<mask id="mask2_0_2832" style="mask-type:luminance" maskUnits="userSpaceOnUse" x="389" y="148" width="26" height="33">
<path fill-rule="evenodd" clip-rule="evenodd" d="M415 148H389L393.531 181H410.469L415 148Z" fill="white"/>
</mask>
<g mask="url(#mask2_0_2832)">
<path fill-rule="evenodd" clip-rule="evenodd" d="M385 152.702H415V152.298H385V152.702Z" fill="#CFE0FF"/>
</g>
<path fill-rule="evenodd" clip-rule="evenodd" d="M45.562 186H46.438V126H45.562V186Z" fill="#233862"/>
<path fill-rule="evenodd" clip-rule="evenodd" d="M59.561 177H60.439V26H59.561V177Z" fill="#233862"/>
<path fill-rule="evenodd" clip-rule="evenodd" d="M52.562 185H53.438V74H52.562V185Z" fill="#233862"/>
<path fill-rule="evenodd" clip-rule="evenodd" d="M73.561 168H74.439V53H73.561V168Z" fill="#233862"/>
<path fill-rule="evenodd" clip-rule="evenodd" d="M66.562 178H67.438V23H66.562V178Z" fill="#233862"/>
<path fill-rule="evenodd" clip-rule="evenodd" d="M38 174C38 161.849 47.8506 152 60.0007 152C72.1509 152 82 161.849 82 174C82 186.151 72.1509 196 60.0007 196C47.8506 196 38 186.151 38 174Z" fill="#FDC748"/>
<path fill-rule="evenodd" clip-rule="evenodd" d="M45.7534 150H74.2451C75.767 150 77 151.633 77 153.647V159.354C77 161.367 75.767 163 74.2451 163H45.7534C44.2315 163 43 161.367 43 159.354V153.647C43 151.633 44.2315 150 45.7534 150Z" fill="#FDC748"/>
<path fill-rule="evenodd" clip-rule="evenodd" d="M43.158 157.909H76.869V157.252H43.158V157.909Z" fill="white" fill-opacity="0.757567"/>
<path fill-rule="evenodd" clip-rule="evenodd" d="M53.1887 21.7338C52.4697 24.5435 51.7192 27.3352 50.625 30.0284C50.9807 29.1884 51.3379 28.3483 51.6952 27.5083C51.6066 27.7127 51.5165 27.9186 51.428 28.1245C50.2452 30.858 49.5292 33.2573 50.3578 36.2549C51.0888 38.893 52.8644 41.1804 55.236 42.5621C57.6887 43.9885 60.6771 44.375 63.4165 43.6259C65.7956 42.9754 68.7375 41.1401 69.7612 38.7751C71.3898 35.0105 72.6476 31.3086 73.6608 27.3441C75.0868 21.7726 71.9031 15.9102 66.2474 14.3629C60.7537 12.8603 54.6146 16.1608 53.1887 21.7338Z" fill="#87B7FF"/>
<path fill-rule="evenodd" clip-rule="evenodd" d="M19.8189 121.007C21.8319 126.987 25.8385 132.012 30.5696 136.068C34.9221 139.798 42.1857 137.707 45.1695 133.368C48.6685 128.281 46.8114 122.487 42.4707 118.766C44.7687 120.737 42.3698 118.508 41.9318 117.999C41.5444 117.548 39.671 114.724 41.1955 117.139C40.1505 115.484 39.337 113.688 38.7135 111.835C36.8861 106.399 29.3315 104.719 24.6821 106.972C19.0485 109.703 17.996 115.586 19.8189 121.007Z" fill="#87B7FF"/>
<path fill-rule="evenodd" clip-rule="evenodd" d="M43.1943 80.0146C43.1619 83.8344 42.4268 87.5365 41.7461 91.2794C40.8754 96.0759 40.7473 100.716 41.4647 105.562C42.3163 111.313 48.4995 114.936 53.8135 113.788C59.6137 112.534 62.7031 106.896 61.853 101.153C61.6718 99.8082 61.632 99.6032 61.7366 100.535C61.7248 99.7705 61.7455 99.0078 61.797 98.2451C61.8854 96.3412 62.2287 94.4464 62.5528 92.5742C63.201 88.8193 63.9671 85.1383 63.9995 81.308C64.0496 75.503 60.1131 70.3794 54.229 70.0176C48.7853 69.6815 43.2444 74.2021 43.1943 80.0146Z" fill="#87B7FF"/>
<path fill-rule="evenodd" clip-rule="evenodd" d="M71.353 59.6029C72.0871 61.0061 72.7967 62.4197 73.4803 63.8465C73.777 64.4672 74.0614 65.0938 74.3459 65.7204C73.046 62.8565 74.3474 65.7704 74.589 66.3646C75.658 68.9976 76.938 71.1039 79.5608 72.5822C82.0582 73.9898 85.103 74.3693 87.894 73.6309C93.1334 72.2438 97.5959 66.1234 95.4487 60.834C93.8292 56.8464 92.0307 52.9265 90.0319 49.1021C87.3847 44.0393 80.0762 42.6419 75.2344 45.3704C69.914 48.3681 68.7058 54.5371 71.353 59.6029Z" fill="#87B7FF"/>
<path fill-rule="evenodd" clip-rule="evenodd" d="M77.5838 88.2658C76.8481 89.4435 76.058 90.5789 75.2267 91.6856C75.7696 90.9664 76.3111 90.2472 76.854 89.5279C76.2669 90.2954 75.6637 91.0508 75.0486 91.7957C73.2036 94.0243 72 96.3253 72 99.3365C72 102.153 73.105 104.885 75.0486 106.876C76.9908 108.868 79.6569 110 82.4054 110C84.9641 110 88.0554 108.941 89.7636 106.876C91.8294 104.38 93.8319 101.791 95.5534 99.0304C98.6109 94.1269 96.5657 87.2888 91.8206 84.4404C86.7797 81.4142 80.6309 83.3774 77.5838 88.2658Z" fill="#87B7FF"/>
<path fill-rule="evenodd" clip-rule="evenodd" d="M68.5238 138.96C70.9851 139.148 73.442 138.628 75.8676 138.288C74.936 138.415 74.003 138.543 73.0699 138.67C74.2098 138.52 75.3259 138.423 76.4762 138.482C82.2098 138.778 87 133.377 87 127.751C87 121.678 82.2039 117.314 76.4762 117.019C74.0223 116.893 71.5714 117.412 69.1518 117.746C70.0848 117.619 71.0179 117.491 71.9494 117.362C70.8006 117.508 69.6815 117.585 68.5238 117.496C62.7961 117.059 58 122.71 58 128.229C58 134.409 62.8065 138.523 68.5238 138.96Z" fill="#87B7FF"/>
<path fill-rule="evenodd" clip-rule="evenodd" d="M61 34C61 34.5522 60.5522 35 60 35C59.4478 35 59 34.5522 59 34C59 33.4478 59.4478 33 60 33C60.5522 33 61 33.4478 61 34Z" fill="#FFFFFE"/>
<path fill-rule="evenodd" clip-rule="evenodd" d="M76 54.9994C76 55.5519 75.5522 56 75 56C74.4478 56 74 55.5519 74 54.9994C74 54.4468 74.4478 54 75 54C75.5522 54 76 54.4468 76 54.9994Z" fill="#FFFFFE"/>
<path fill-rule="evenodd" clip-rule="evenodd" d="M61 87C61 87.5522 60.5532 88 60.0006 88C59.4481 88 59 87.5522 59 87C59 86.4478 59.4481 86 60.0006 86C60.5532 86 61 86.4478 61 87Z" fill="#FFFFFE"/>
<path fill-rule="evenodd" clip-rule="evenodd" d="M88 97C88 97.5522 87.5522 98 87 98C86.4478 98 86 97.5522 86 97C86 96.4478 86.4478 96 87 96C87.5522 96 88 96.4478 88 97Z" fill="#FFFFFE"/>
<path fill-rule="evenodd" clip-rule="evenodd" d="M81 129C81 129.552 80.5532 130 80.0006 130C79.4481 130 79 129.552 79 129C79 128.448 79.4481 128 80.0006 128C80.5532 128 81 128.448 81 129Z" fill="#FFFFFE"/>
<path fill-rule="evenodd" clip-rule="evenodd" d="M32.9831 122.818C33.0837 123.361 32.7248 123.883 32.1826 123.983C31.6392 124.084 31.1174 123.725 31.0169 123.182C30.9163 122.639 31.2752 122.117 31.8186 122.017C32.3621 121.916 32.8839 122.275 32.9831 122.818Z" fill="#FFFFFE"/>
</g>
</svg>
